<svg xmlns="http://www.w3.org/2000/svg" width="31" height="31" viewBox="0 0 31 31" fill="none">
<path fill-rule="evenodd" clip-rule="evenodd" d="M14.0283 0.0376381C9.17787 0.542015 4.92691 3.18172 2.34456 7.29293C-1.31642 13.1214 -0.632959 20.8212 3.99553 25.8922C6.55733 28.6989 9.76117 30.3768 13.6033 30.9241C14.3205 31.0263 16.7043 31.025 17.4532 30.922C20.9621 30.4396 24.1048 28.8833 26.4949 26.4444C27.2793 25.644 27.4464 25.4526 27.9667 24.7587C29.5171 22.6908 30.5322 20.1698 30.9239 17.4147C31.0254 16.7009 31.0254 14.3062 30.9239 13.5927C30.6626 11.7561 30.1875 10.1912 29.4253 8.6564C28.6176 7.03031 27.7889 5.87104 26.4989 4.56302C24.106 2.13656 21.1098 0.629253 17.6654 0.118931C16.9216 0.00870042 14.7691 -0.0393471 14.0283 0.0376381ZM22.7252 6.32828C23.3254 6.63264 23.6174 7.18313 23.5603 7.90287C23.5064 8.58227 23.0752 9.08998 22.3808 9.292C21.5165 9.5434 20.5628 8.93528 20.3919 8.02378C20.3688 7.90026 20.3324 7.79913 20.3111 7.79913C20.2898 7.79907 19.5767 7.64898 18.7264 7.46547C17.876 7.28195 17.1389 7.13186 17.0882 7.1318C17.0158 7.1318 16.8884 7.63848 16.4967 9.48261C16.2221 10.7756 15.9976 11.8676 15.9978 11.9093C15.998 11.9609 16.109 11.9854 16.3467 11.9862C16.8355 11.9878 17.8465 12.1392 18.5366 12.3142C19.7029 12.61 20.8437 13.0916 21.6545 13.6303L22.006 13.8638L22.3122 13.653C23.0799 13.1246 24.1393 13.1232 24.8792 13.6497C25.5085 14.0974 25.835 14.7288 25.838 15.5037C25.841 16.2763 25.5022 16.9246 24.865 17.366L24.5467 17.5865V18.2341C24.5467 18.6851 24.5095 19.0272 24.4241 19.3615C23.7658 21.9398 20.8826 23.961 17.1621 24.4524C16.3016 24.5661 14.7124 24.5672 13.8678 24.4547C10.6132 24.0211 7.96008 22.4094 6.92261 20.2357C6.60553 19.5711 6.5275 19.2222 6.50246 18.3562L6.47881 17.5383L6.27589 17.4342C5.95401 17.269 5.47341 16.6988 5.32602 16.3074C5.21713 16.0183 5.19895 15.8654 5.21938 15.4127C5.24969 14.7397 5.38198 14.4179 5.81748 13.9571C6.24897 13.5006 6.67009 13.3067 7.30596 13.2717C7.88387 13.24 8.25916 13.3413 8.72491 13.6549L9.02581 13.8575L9.34411 13.6427C10.6822 12.7395 13.1034 11.991 14.7023 11.9862C14.9263 11.9855 15.0973 11.955 15.1329 11.9093C15.1655 11.8676 15.4435 10.6186 15.7508 9.13378C16.3349 6.31178 16.3631 6.22181 16.6655 6.22181C16.7251 6.22181 17.6103 6.40053 18.6326 6.61899L20.4912 7.01611L20.7686 6.70744C21.3275 6.08549 21.9924 5.95664 22.7252 6.32828ZM11.41 15.5993C11.0376 15.7368 10.6414 16.1144 10.4831 16.4827C10.321 16.8598 10.3299 17.4606 10.503 17.8181C10.6402 18.1014 10.9769 18.4383 11.26 18.5755C11.6172 18.7487 12.2177 18.7577 12.5946 18.5955C13.1401 18.3607 13.5729 17.7246 13.5729 17.1578C13.5729 16.5698 13.2122 15.9621 12.7078 15.7003C12.3427 15.5108 11.7703 15.4663 11.41 15.5993ZM18.6094 15.5744C17.9571 15.7618 17.4546 16.4451 17.4535 17.1461C17.4526 17.7237 17.8809 18.3584 18.4315 18.5955C18.8084 18.7577 19.4088 18.7487 19.7661 18.5755C20.0492 18.4383 20.3859 18.1014 20.5231 17.8181C20.6962 17.4606 20.7051 16.8598 20.543 16.4827C20.2283 15.7507 19.381 15.3527 18.6094 15.5744ZM11.732 20.7861C11.485 20.9805 11.5144 21.2323 11.817 21.5117C12.8629 22.4779 15.3836 22.8538 17.4532 22.3522C18.0764 22.2012 18.8448 21.8426 19.1994 21.5373C19.4275 21.341 19.458 21.2857 19.4419 21.0987C19.4293 20.9516 19.3737 20.8476 19.2641 20.7661C19.0736 20.6244 18.9476 20.6535 18.6256 20.9138C17.7417 21.6281 15.7874 21.9278 14.1089 21.6065C13.331 21.4576 12.8695 21.2601 12.2453 20.8091C11.9945 20.628 11.9362 20.6253 11.732 20.7861Z" fill="#ffffff"/>
</svg>